<svg width="393" height="852" viewBox="0 0 393 852" fill="none" xmlns="http://www.w3.org/2000/svg">
<rect width="393" height="852" rx="36" fill="#F1F1F6"/>
<g clip-path="url(#clip0_878_626)">
<path d="M158.732 311.696H148.817C148.695 311.696 148.577 311.745 148.49 311.833C148.403 311.92 148.354 312.038 148.354 312.161V317.023C148.354 317.146 148.403 317.264 148.49 317.351C148.577 317.439 148.695 317.488 148.817 317.488H152.685V323.528C152.685 323.528 151.817 323.825 149.416 323.825C146.583 323.825 142.626 322.787 142.626 314.06C142.626 305.332 146.746 304.183 150.615 304.183C153.963 304.183 155.406 304.775 156.324 305.059C156.612 305.148 156.879 304.86 156.879 304.603L157.985 299.906C157.985 299.786 157.945 299.641 157.808 299.543C157.435 299.276 155.161 298 149.416 298C142.797 298 136.008 300.824 136.008 314.4C136.008 327.977 143.781 330 150.331 330C155.755 330 159.045 327.676 159.045 327.676C159.18 327.6 159.195 327.41 159.195 327.323V312.161C159.195 311.905 158.988 311.696 158.732 311.696ZM209.827 299.627C209.828 299.566 209.817 299.505 209.794 299.449C209.771 299.392 209.737 299.341 209.694 299.297C209.651 299.254 209.601 299.219 209.544 299.196C209.488 299.172 209.428 299.16 209.367 299.16H203.785C203.724 299.16 203.663 299.172 203.607 299.196C203.551 299.219 203.5 299.254 203.457 299.297C203.414 299.34 203.38 299.392 203.357 299.448C203.334 299.505 203.322 299.566 203.322 299.627L203.324 310.446H194.622V299.627C194.623 299.566 194.611 299.505 194.588 299.449C194.565 299.392 194.531 299.341 194.489 299.297C194.446 299.254 194.395 299.219 194.339 299.196C194.283 299.172 194.222 299.16 194.161 299.16H188.579C188.456 299.16 188.339 299.21 188.252 299.297C188.166 299.385 188.117 299.503 188.118 299.627V328.924C188.118 329.182 188.325 329.392 188.579 329.392H194.161C194.417 329.392 194.622 329.181 194.622 328.924V316.392H203.324L203.308 328.924C203.308 329.182 203.516 329.392 203.771 329.392H209.367C209.623 329.392 209.827 329.181 209.827 328.924V299.627ZM169.266 303.471C169.266 301.455 167.655 299.826 165.666 299.826C163.68 299.826 162.067 301.455 162.067 303.471C162.067 305.485 163.68 307.118 165.666 307.118C167.655 307.118 169.266 305.485 169.266 303.471ZM168.867 322.744V309.22C168.867 309.097 168.819 308.978 168.732 308.891C168.646 308.803 168.528 308.754 168.405 308.753H162.84C162.585 308.753 162.357 309.017 162.357 309.274V328.649C162.357 329.219 162.71 329.388 163.168 329.388H168.182C168.732 329.388 168.867 329.117 168.867 328.64V322.744ZM231.043 308.797H225.503C225.249 308.797 225.042 309.007 225.042 309.266V323.631C225.042 323.631 223.635 324.664 221.638 324.664C219.64 324.664 219.11 323.755 219.11 321.793V309.266C219.11 309.007 218.904 308.797 218.65 308.797H213.027C212.774 308.797 212.566 309.007 212.566 309.266V322.742C212.566 328.568 215.803 329.993 220.258 329.993C223.912 329.993 226.858 327.969 226.858 327.969C226.858 327.969 226.998 329.035 227.061 329.162C227.125 329.288 227.29 329.416 227.469 329.416L231.046 329.4C231.299 329.4 231.507 329.189 231.507 328.932L231.505 309.266C231.505 309.007 231.298 308.797 231.043 308.797ZM243.999 324.646C242.077 324.587 240.774 323.713 240.774 323.713V314.435C240.774 314.435 242.06 313.645 243.637 313.503C245.632 313.324 247.554 313.929 247.554 318.701C247.555 323.734 246.687 324.727 243.999 324.646ZM246.184 308.139C243.038 308.139 240.897 309.547 240.897 309.547V299.627C240.897 299.368 240.691 299.16 240.437 299.16H234.839C234.778 299.16 234.717 299.172 234.661 299.196C234.605 299.219 234.554 299.254 234.511 299.297C234.468 299.341 234.435 299.392 234.412 299.449C234.389 299.505 234.377 299.566 234.377 299.627V328.924C234.377 329.182 234.584 329.392 234.839 329.392H238.724C238.898 329.392 239.031 329.301 239.129 329.143C239.225 328.986 239.364 327.793 239.364 327.793C239.364 327.793 241.654 329.968 245.987 329.968C251.075 329.968 253.992 327.38 253.992 318.35C253.992 309.319 249.332 308.139 246.184 308.139ZM184.912 308.751H180.724L180.718 303.202C180.718 302.992 180.61 302.887 180.368 302.887H174.661C174.439 302.887 174.32 302.985 174.32 303.199V308.933C174.32 308.933 171.46 309.625 171.267 309.681C171.171 309.709 171.086 309.768 171.026 309.848C170.965 309.929 170.933 310.027 170.933 310.128V313.731C170.933 313.99 171.139 314.198 171.394 314.198H174.32V322.866C174.32 329.304 178.823 329.936 181.861 329.936C183.25 329.936 184.911 329.489 185.185 329.387C185.351 329.326 185.447 329.154 185.447 328.967L185.452 325.004C185.452 324.745 185.234 324.537 184.989 324.537C184.745 324.537 184.12 324.636 183.478 324.636C181.421 324.636 180.724 323.677 180.724 322.435L180.724 314.198H184.912C185.167 314.198 185.373 313.989 185.373 313.73V309.217C185.374 309.156 185.362 309.096 185.339 309.039C185.316 308.983 185.282 308.931 185.239 308.888C185.196 308.845 185.145 308.81 185.089 308.787C185.033 308.763 184.972 308.751 184.912 308.751Z" fill="#121110"/>
</g>
<path d="M66.72 372C66.1733 370.84 65.6333 369.633 65.1 368.38C64.5667 367.127 64.06 365.887 63.58 364.66C63.1 363.433 62.6533 362.26 62.24 361.14C61.84 360.02 61.4933 359.02 61.2 358.14H64.64C64.9067 358.94 65.1933 359.807 65.5 360.74C65.82 361.66 66.14 362.58 66.46 363.5C66.7933 364.42 67.1133 365.3 67.42 366.14C67.7267 366.98 68.0133 367.707 68.28 368.32C68.5333 367.707 68.8133 366.98 69.12 366.14C69.44 365.3 69.76 364.42 70.08 363.5C70.4133 362.58 70.7333 361.66 71.04 360.74C71.36 359.807 71.6533 358.94 71.92 358.14H75.24C74.9333 359.02 74.58 360.02 74.18 361.14C73.78 362.26 73.34 363.433 72.86 364.66C72.38 365.887 71.8733 367.127 71.34 368.38C70.8067 369.633 70.2667 370.84 69.72 372H66.72ZM79.8136 372H76.8336V361.48H79.8136V372ZM80.0936 358.44C80.0936 358.987 79.9136 359.42 79.5536 359.74C79.2069 360.047 78.7936 360.2 78.3136 360.2C77.8336 360.2 77.4136 360.047 77.0536 359.74C76.7069 359.42 76.5336 358.987 76.5336 358.44C76.5336 357.893 76.7069 357.467 77.0536 357.16C77.4136 356.84 77.8336 356.68 78.3136 356.68C78.7936 356.68 79.2069 356.84 79.5536 357.16C79.9136 357.467 80.0936 357.893 80.0936 358.44ZM85.6348 369.86C86.1815 369.86 86.5682 369.807 86.7948 369.7C87.0215 369.593 87.1348 369.387 87.1348 369.08C87.1348 368.84 86.9882 368.633 86.6948 368.46C86.4015 368.273 85.9548 368.067 85.3548 367.84C84.8882 367.667 84.4615 367.487 84.0748 367.3C83.7015 367.113 83.3815 366.893 83.1148 366.64C82.8482 366.373 82.6415 366.06 82.4948 365.7C82.3482 365.34 82.2748 364.907 82.2748 364.4C82.2748 363.413 82.6415 362.633 83.3748 362.06C84.1082 361.487 85.1148 361.2 86.3948 361.2C87.0348 361.2 87.6482 361.26 88.2348 361.38C88.8215 361.487 89.2882 361.607 89.6348 361.74L89.1148 364.06C88.7682 363.94 88.3882 363.833 87.9748 363.74C87.5748 363.647 87.1215 363.6 86.6148 363.6C85.6815 363.6 85.2148 363.86 85.2148 364.38C85.2148 364.5 85.2348 364.607 85.2748 364.7C85.3148 364.793 85.3948 364.887 85.5148 364.98C85.6348 365.06 85.7948 365.153 85.9948 365.26C86.2082 365.353 86.4748 365.46 86.7948 365.58C87.4482 365.82 87.9882 366.06 88.4148 366.3C88.8415 366.527 89.1748 366.78 89.4148 367.06C89.6682 367.327 89.8415 367.627 89.9348 367.96C90.0415 368.293 90.0948 368.68 90.0948 369.12C90.0948 370.16 89.7015 370.947 88.9148 371.48C88.1415 372.013 87.0415 372.28 85.6148 372.28C84.6815 372.28 83.9015 372.2 83.2748 372.04C82.6615 371.88 82.2348 371.747 81.9948 371.64L82.4948 369.22C83.0015 369.42 83.5215 369.58 84.0548 369.7C84.5882 369.807 85.1148 369.86 85.6348 369.86ZM101.302 371.64C100.795 371.787 100.142 371.92 99.3419 372.04C98.5419 372.173 97.7019 372.24 96.8219 372.24C95.9285 372.24 95.1819 372.12 94.5819 371.88C93.9952 371.64 93.5285 371.307 93.1819 370.88C92.8352 370.44 92.5885 369.92 92.4419 369.32C92.2952 368.72 92.2219 368.06 92.2219 367.34V361.48H95.2019V366.98C95.2019 367.94 95.3285 368.633 95.5819 369.06C95.8352 369.487 96.3085 369.7 97.0019 369.7C97.2152 369.7 97.4419 369.693 97.6819 369.68C97.9219 369.653 98.1352 369.627 98.3219 369.6V361.48H101.302V371.64ZM108.119 369.92C108.413 369.92 108.693 369.913 108.959 369.9C109.226 369.887 109.439 369.867 109.599 369.84V367.58C109.479 367.553 109.299 367.527 109.059 367.5C108.819 367.473 108.599 367.46 108.399 367.46C108.119 367.46 107.853 367.48 107.599 367.52C107.359 367.547 107.146 367.607 106.959 367.7C106.773 367.793 106.626 367.92 106.519 368.08C106.413 368.24 106.359 368.44 106.359 368.68C106.359 369.147 106.513 369.473 106.819 369.66C107.139 369.833 107.573 369.92 108.119 369.92ZM107.879 361.2C108.759 361.2 109.493 361.3 110.079 361.5C110.666 361.7 111.133 361.987 111.479 362.36C111.839 362.733 112.093 363.187 112.239 363.72C112.386 364.253 112.459 364.847 112.459 365.5V371.7C112.033 371.793 111.439 371.9 110.679 372.02C109.919 372.153 108.999 372.22 107.919 372.22C107.239 372.22 106.619 372.16 106.059 372.04C105.513 371.92 105.039 371.727 104.639 371.46C104.239 371.18 103.933 370.82 103.719 370.38C103.506 369.94 103.399 369.4 103.399 368.76C103.399 368.147 103.519 367.627 103.759 367.2C104.013 366.773 104.346 366.433 104.759 366.18C105.173 365.927 105.646 365.747 106.179 365.64C106.713 365.52 107.266 365.46 107.839 365.46C108.226 365.46 108.566 365.48 108.859 365.52C109.166 365.547 109.413 365.587 109.599 365.64V365.36C109.599 364.853 109.446 364.447 109.139 364.14C108.833 363.833 108.299 363.68 107.539 363.68C107.033 363.68 106.533 363.72 106.039 363.8C105.546 363.867 105.119 363.967 104.759 364.1L104.379 361.7C104.553 361.647 104.766 361.593 105.019 361.54C105.286 361.473 105.573 361.42 105.879 361.38C106.186 361.327 106.506 361.287 106.839 361.26C107.186 361.22 107.533 361.2 107.879 361.2ZM119.354 372.2C118.487 372.187 117.781 372.093 117.234 371.92C116.701 371.747 116.274 371.507 115.954 371.2C115.647 370.88 115.434 370.5 115.314 370.06C115.207 369.607 115.154 369.1 115.154 368.54V356.96L118.134 356.48V367.94C118.134 368.207 118.154 368.447 118.194 368.66C118.234 368.873 118.307 369.053 118.414 369.2C118.534 369.347 118.701 369.467 118.914 369.56C119.127 369.653 119.414 369.713 119.774 369.74L119.354 372.2ZM124.462 372H121.482V361.48H124.462V372ZM124.742 358.44C124.742 358.987 124.562 359.42 124.202 359.74C123.855 360.047 123.442 360.2 122.962 360.2C122.482 360.2 122.062 360.047 121.702 359.74C121.355 359.42 121.182 358.987 121.182 358.44C121.182 357.893 121.355 357.467 121.702 357.16C122.062 356.84 122.482 356.68 122.962 356.68C123.442 356.68 123.855 356.84 124.202 357.16C124.562 357.467 124.742 357.893 124.742 358.44ZM135.163 363.48C134.923 363.747 134.597 364.107 134.183 364.56C133.783 365.013 133.35 365.513 132.883 366.06C132.417 366.607 131.943 367.18 131.463 367.78C130.997 368.38 130.57 368.96 130.183 369.52H135.263V372H126.563V370.24C126.843 369.76 127.177 369.247 127.563 368.7C127.963 368.14 128.377 367.58 128.803 367.02C129.243 366.46 129.677 365.92 130.103 365.4C130.53 364.867 130.923 364.387 131.283 363.96H126.803V361.48H135.163V363.48ZM140.99 369.92C141.284 369.92 141.564 369.913 141.83 369.9C142.097 369.887 142.31 369.867 142.47 369.84V367.58C142.35 367.553 142.17 367.527 141.93 367.5C141.69 367.473 141.47 367.46 141.27 367.46C140.99 367.46 140.724 367.48 140.47 367.52C140.23 367.547 140.017 367.607 139.83 367.7C139.644 367.793 139.497 367.92 139.39 368.08C139.284 368.24 139.23 368.44 139.23 368.68C139.23 369.147 139.384 369.473 139.69 369.66C140.01 369.833 140.444 369.92 140.99 369.92ZM140.75 361.2C141.63 361.2 142.364 361.3 142.95 361.5C143.537 361.7 144.004 361.987 144.35 362.36C144.71 362.733 144.964 363.187 145.11 363.72C145.257 364.253 145.33 364.847 145.33 365.5V371.7C144.904 371.793 144.31 371.9 143.55 372.02C142.79 372.153 141.87 372.22 140.79 372.22C140.11 372.22 139.49 372.16 138.93 372.04C138.384 371.92 137.91 371.727 137.51 371.46C137.11 371.18 136.804 370.82 136.59 370.38C136.377 369.94 136.27 369.4 136.27 368.76C136.27 368.147 136.39 367.627 136.63 367.2C136.884 366.773 137.217 366.433 137.63 366.18C138.044 365.927 138.517 365.747 139.05 365.64C139.584 365.52 140.137 365.46 140.71 365.46C141.097 365.46 141.437 365.48 141.73 365.52C142.037 365.547 142.284 365.587 142.47 365.64V365.36C142.47 364.853 142.317 364.447 142.01 364.14C141.704 363.833 141.17 363.68 140.41 363.68C139.904 363.68 139.404 363.72 138.91 363.8C138.417 363.867 137.99 363.967 137.63 364.1L137.25 361.7C137.424 361.647 137.637 361.593 137.89 361.54C138.157 361.473 138.444 361.42 138.75 361.38C139.057 361.327 139.377 361.287 139.71 361.26C140.057 361.22 140.404 361.2 140.75 361.2ZM150.565 366.66C150.565 367.58 150.772 368.32 151.185 368.88C151.598 369.44 152.212 369.72 153.025 369.72C153.292 369.72 153.538 369.713 153.765 369.7C153.992 369.673 154.178 369.647 154.325 369.62V364.2C154.138 364.08 153.892 363.98 153.585 363.9C153.292 363.82 152.992 363.78 152.685 363.78C151.272 363.78 150.565 364.74 150.565 366.66ZM157.305 371.66C157.038 371.74 156.732 371.82 156.385 371.9C156.038 371.967 155.672 372.027 155.285 372.08C154.912 372.133 154.525 372.173 154.125 372.2C153.738 372.24 153.365 372.26 153.005 372.26C152.138 372.26 151.365 372.133 150.685 371.88C150.005 371.627 149.432 371.267 148.965 370.8C148.498 370.32 148.138 369.747 147.885 369.08C147.645 368.4 147.525 367.64 147.525 366.8C147.525 365.947 147.632 365.18 147.845 364.5C148.058 363.807 148.365 363.22 148.765 362.74C149.165 362.26 149.652 361.893 150.225 361.64C150.812 361.387 151.478 361.26 152.225 361.26C152.638 361.26 153.005 361.3 153.325 361.38C153.658 361.46 153.992 361.573 154.325 361.72V356.96L157.305 356.48V371.66ZM169.935 366.72C169.935 367.547 169.815 368.307 169.575 369C169.335 369.68 168.989 370.267 168.535 370.76C168.082 371.24 167.535 371.613 166.895 371.88C166.269 372.147 165.562 372.28 164.775 372.28C164.002 372.28 163.295 372.147 162.655 371.88C162.029 371.613 161.489 371.24 161.035 370.76C160.582 370.267 160.229 369.68 159.975 369C159.722 368.307 159.595 367.547 159.595 366.72C159.595 365.893 159.722 365.14 159.975 364.46C160.242 363.78 160.602 363.2 161.055 362.72C161.522 362.24 162.069 361.867 162.695 361.6C163.335 361.333 164.029 361.2 164.775 361.2C165.535 361.2 166.229 361.333 166.855 361.6C167.495 361.867 168.042 362.24 168.495 362.72C168.949 363.2 169.302 363.78 169.555 364.46C169.809 365.14 169.935 365.893 169.935 366.72ZM166.895 366.72C166.895 365.8 166.709 365.08 166.335 364.56C165.975 364.027 165.455 363.76 164.775 363.76C164.095 363.76 163.569 364.027 163.195 364.56C162.822 365.08 162.635 365.8 162.635 366.72C162.635 367.64 162.822 368.373 163.195 368.92C163.569 369.453 164.095 369.72 164.775 369.72C165.455 369.72 165.975 369.453 166.335 368.92C166.709 368.373 166.895 367.64 166.895 366.72ZM178.584 364.12C178.317 364.053 178.004 363.987 177.644 363.92C177.284 363.84 176.897 363.8 176.484 363.8C176.297 363.8 176.07 363.82 175.804 363.86C175.55 363.887 175.357 363.92 175.224 363.96V372H172.244V362.04C172.777 361.853 173.404 361.68 174.124 361.52C174.857 361.347 175.67 361.26 176.564 361.26C176.724 361.26 176.917 361.273 177.144 361.3C177.37 361.313 177.597 361.34 177.824 361.38C178.05 361.407 178.277 361.447 178.504 361.5C178.73 361.54 178.924 361.593 179.084 361.66L178.584 364.12ZM188.026 366.66C188.026 367.58 188.233 368.32 188.646 368.88C189.059 369.44 189.673 369.72 190.486 369.72C190.753 369.72 190.999 369.713 191.226 369.7C191.453 369.673 191.639 369.647 191.786 369.62V364.2C191.599 364.08 191.353 363.98 191.046 363.9C190.753 363.82 190.453 363.78 190.146 363.78C188.733 363.78 188.026 364.74 188.026 366.66ZM194.766 371.66C194.499 371.74 194.193 371.82 193.846 371.9C193.499 371.967 193.133 372.027 192.746 372.08C192.373 372.133 191.986 372.173 191.586 372.2C191.199 372.24 190.826 372.26 190.466 372.26C189.599 372.26 188.826 372.133 188.146 371.88C187.466 371.627 186.893 371.267 186.426 370.8C185.959 370.32 185.599 369.747 185.346 369.08C185.106 368.4 184.986 367.64 184.986 366.8C184.986 365.947 185.093 365.18 185.306 364.5C185.519 363.807 185.826 363.22 186.226 362.74C186.626 362.26 187.113 361.893 187.686 361.64C188.273 361.387 188.939 361.26 189.686 361.26C190.099 361.26 190.466 361.3 190.786 361.38C191.119 361.46 191.453 361.573 191.786 361.72V356.96L194.766 356.48V371.66ZM197.056 366.82C197.056 365.887 197.196 365.073 197.476 364.38C197.77 363.673 198.15 363.087 198.616 362.62C199.083 362.153 199.616 361.8 200.216 361.56C200.83 361.32 201.456 361.2 202.096 361.2C203.59 361.2 204.77 361.66 205.636 362.58C206.503 363.487 206.936 364.827 206.936 366.6C206.936 366.773 206.93 366.967 206.916 367.18C206.903 367.38 206.89 367.56 206.876 367.72H200.116C200.183 368.333 200.47 368.82 200.976 369.18C201.483 369.54 202.163 369.72 203.016 369.72C203.563 369.72 204.096 369.673 204.616 369.58C205.15 369.473 205.583 369.347 205.916 369.2L206.316 371.62C206.156 371.7 205.943 371.78 205.676 371.86C205.41 371.94 205.11 372.007 204.776 372.06C204.456 372.127 204.11 372.18 203.736 372.22C203.363 372.26 202.99 372.28 202.616 372.28C201.67 372.28 200.843 372.14 200.136 371.86C199.443 371.58 198.863 371.2 198.396 370.72C197.943 370.227 197.603 369.647 197.376 368.98C197.163 368.313 197.056 367.593 197.056 366.82ZM204.056 365.68C204.043 365.427 203.996 365.18 203.916 364.94C203.85 364.7 203.736 364.487 203.576 364.3C203.43 364.113 203.236 363.96 202.996 363.84C202.77 363.72 202.483 363.66 202.136 363.66C201.803 363.66 201.516 363.72 201.276 363.84C201.036 363.947 200.836 364.093 200.676 364.28C200.516 364.467 200.39 364.687 200.296 364.94C200.216 365.18 200.156 365.427 200.116 365.68H204.056ZM220.381 364.12C220.114 364.053 219.801 363.987 219.441 363.92C219.081 363.84 218.694 363.8 218.281 363.8C218.094 363.8 217.867 363.82 217.601 363.86C217.347 363.887 217.154 363.92 217.021 363.96V372H214.041V362.04C214.574 361.853 215.201 361.68 215.921 361.52C216.654 361.347 217.467 361.26 218.361 361.26C218.521 361.26 218.714 361.273 218.941 361.3C219.167 361.313 219.394 361.34 219.621 361.38C219.847 361.407 220.074 361.447 220.301 361.5C220.527 361.54 220.721 361.593 220.881 361.66L220.381 364.12ZM221.783 366.82C221.783 365.887 221.923 365.073 222.203 364.38C222.496 363.673 222.876 363.087 223.343 362.62C223.809 362.153 224.343 361.8 224.943 361.56C225.556 361.32 226.183 361.2 226.823 361.2C228.316 361.2 229.496 361.66 230.363 362.58C231.229 363.487 231.663 364.827 231.663 366.6C231.663 366.773 231.656 366.967 231.643 367.18C231.629 367.38 231.616 367.56 231.603 367.72H224.843C224.909 368.333 225.196 368.82 225.703 369.18C226.209 369.54 226.889 369.72 227.743 369.72C228.289 369.72 228.823 369.673 229.343 369.58C229.876 369.473 230.309 369.347 230.643 369.2L231.043 371.62C230.883 371.7 230.669 371.78 230.403 371.86C230.136 371.94 229.836 372.007 229.503 372.06C229.183 372.127 228.836 372.18 228.463 372.22C228.089 372.26 227.716 372.28 227.343 372.28C226.396 372.28 225.569 372.14 224.863 371.86C224.169 371.58 223.589 371.2 223.123 370.72C222.669 370.227 222.329 369.647 222.103 368.98C221.889 368.313 221.783 367.593 221.783 366.82ZM228.783 365.68C228.769 365.427 228.723 365.18 228.643 364.94C228.576 364.7 228.463 364.487 228.303 364.3C228.156 364.113 227.963 363.96 227.723 363.84C227.496 363.72 227.209 363.66 226.863 363.66C226.529 363.66 226.243 363.72 226.003 363.84C225.763 363.947 225.563 364.093 225.403 364.28C225.243 364.467 225.116 364.687 225.023 364.94C224.943 365.18 224.883 365.427 224.843 365.68H228.783ZM240.703 366.82C240.703 365.9 240.496 365.167 240.083 364.62C239.669 364.06 239.056 363.78 238.243 363.78C237.976 363.78 237.729 363.793 237.503 363.82C237.276 363.833 237.089 363.853 236.943 363.88V369.26C237.129 369.38 237.369 369.48 237.663 369.56C237.969 369.64 238.276 369.68 238.583 369.68C239.996 369.68 240.703 368.727 240.703 366.82ZM243.743 366.74C243.743 367.553 243.643 368.293 243.443 368.96C243.243 369.627 242.949 370.2 242.562 370.68C242.176 371.16 241.696 371.533 241.123 371.8C240.549 372.067 239.889 372.2 239.143 372.2C238.729 372.2 238.343 372.16 237.983 372.08C237.623 372 237.276 371.887 236.943 371.74V375.7H233.963V361.84C234.229 361.76 234.536 361.687 234.883 361.62C235.229 361.54 235.589 361.473 235.963 361.42C236.349 361.367 236.736 361.327 237.123 361.3C237.523 361.26 237.903 361.24 238.263 361.24C239.129 361.24 239.903 361.373 240.583 361.64C241.263 361.893 241.836 362.26 242.303 362.74C242.769 363.207 243.123 363.78 243.363 364.46C243.616 365.14 243.743 365.9 243.743 366.74ZM255.873 366.72C255.873 367.547 255.753 368.307 255.513 369C255.273 369.68 254.926 370.267 254.473 370.76C254.019 371.24 253.473 371.613 252.833 371.88C252.206 372.147 251.499 372.28 250.713 372.28C249.939 372.28 249.233 372.147 248.593 371.88C247.966 371.613 247.426 371.24 246.973 370.76C246.519 370.267 246.166 369.68 245.913 369C245.659 368.307 245.533 367.547 245.533 366.72C245.533 365.893 245.659 365.14 245.913 364.46C246.179 363.78 246.539 363.2 246.993 362.72C247.459 362.24 248.006 361.867 248.633 361.6C249.273 361.333 249.966 361.2 250.713 361.2C251.473 361.2 252.166 361.333 252.793 361.6C253.433 361.867 253.979 362.24 254.433 362.72C254.886 363.2 255.239 363.78 255.493 364.46C255.746 365.14 255.873 365.893 255.873 366.72ZM252.833 366.72C252.833 365.8 252.646 365.08 252.273 364.56C251.913 364.027 251.393 363.76 250.713 363.76C250.033 363.76 249.506 364.027 249.133 364.56C248.759 365.08 248.573 365.8 248.573 366.72C248.573 367.64 248.759 368.373 249.133 368.92C249.506 369.453 250.033 369.72 250.713 369.72C251.393 369.72 251.913 369.453 252.273 368.92C252.646 368.373 252.833 367.64 252.833 366.72ZM261.201 369.86C261.748 369.86 262.135 369.807 262.361 369.7C262.588 369.593 262.701 369.387 262.701 369.08C262.701 368.84 262.555 368.633 262.261 368.46C261.968 368.273 261.521 368.067 260.921 367.84C260.455 367.667 260.028 367.487 259.641 367.3C259.268 367.113 258.948 366.893 258.681 366.64C258.415 366.373 258.208 366.06 258.061 365.7C257.915 365.34 257.841 364.907 257.841 364.4C257.841 363.413 258.208 362.633 258.941 362.06C259.675 361.487 260.681 361.2 261.961 361.2C262.601 361.2 263.215 361.26 263.801 361.38C264.388 361.487 264.855 361.607 265.201 361.74L264.681 364.06C264.335 363.94 263.955 363.833 263.541 363.74C263.141 363.647 262.688 363.6 262.181 363.6C261.248 363.6 260.781 363.86 260.781 364.38C260.781 364.5 260.801 364.607 260.841 364.7C260.881 364.793 260.961 364.887 261.081 364.98C261.201 365.06 261.361 365.153 261.561 365.26C261.775 365.353 262.041 365.46 262.361 365.58C263.015 365.82 263.555 366.06 263.981 366.3C264.408 366.527 264.741 366.78 264.981 367.06C265.235 367.327 265.408 367.627 265.501 367.96C265.608 368.293 265.661 368.68 265.661 369.12C265.661 370.16 265.268 370.947 264.481 371.48C263.708 372.013 262.608 372.28 261.181 372.28C260.248 372.28 259.468 372.2 258.841 372.04C258.228 371.88 257.801 371.747 257.561 371.64L258.061 369.22C258.568 369.42 259.088 369.58 259.621 369.7C260.155 369.807 260.681 369.86 261.201 369.86ZM270.868 372H267.888V361.48H270.868V372ZM271.148 358.44C271.148 358.987 270.968 359.42 270.608 359.74C270.262 360.047 269.848 360.2 269.368 360.2C268.888 360.2 268.468 360.047 268.108 359.74C267.762 359.42 267.588 358.987 267.588 358.44C267.588 357.893 267.762 357.467 268.108 357.16C268.468 356.84 268.888 356.68 269.368 356.68C269.848 356.68 270.262 356.84 270.608 357.16C270.968 357.467 271.148 357.893 271.148 358.44ZM273.57 358.86L276.55 358.38V361.48H280.13V363.96H276.55V367.66C276.55 368.287 276.656 368.787 276.87 369.16C277.096 369.533 277.543 369.72 278.21 369.72C278.53 369.72 278.856 369.693 279.19 369.64C279.536 369.573 279.85 369.487 280.13 369.38L280.55 371.7C280.19 371.847 279.79 371.973 279.35 372.08C278.91 372.187 278.37 372.24 277.73 372.24C276.916 372.24 276.243 372.133 275.71 371.92C275.176 371.693 274.75 371.387 274.43 371C274.11 370.6 273.883 370.12 273.75 369.56C273.63 369 273.57 368.38 273.57 367.7V358.86ZM292.006 366.72C292.006 367.547 291.886 368.307 291.646 369C291.406 369.68 291.059 370.267 290.606 370.76C290.152 371.24 289.606 371.613 288.966 371.88C288.339 372.147 287.632 372.28 286.846 372.28C286.072 372.28 285.366 372.147 284.726 371.88C284.099 371.613 283.559 371.24 283.106 370.76C282.652 370.267 282.299 369.68 282.046 369C281.792 368.307 281.666 367.547 281.666 366.72C281.666 365.893 281.792 365.14 282.046 364.46C282.312 363.78 282.672 363.2 283.126 362.72C283.592 362.24 284.139 361.867 284.766 361.6C285.406 361.333 286.099 361.2 286.846 361.2C287.606 361.2 288.299 361.333 288.926 361.6C289.566 361.867 290.112 362.24 290.566 362.72C291.019 363.2 291.372 363.78 291.626 364.46C291.879 365.14 292.006 365.893 292.006 366.72ZM288.966 366.72C288.966 365.8 288.779 365.08 288.406 364.56C288.046 364.027 287.526 363.76 286.846 363.76C286.166 363.76 285.639 364.027 285.266 364.56C284.892 365.08 284.706 365.8 284.706 366.72C284.706 367.64 284.892 368.373 285.266 368.92C285.639 369.453 286.166 369.72 286.846 369.72C287.526 369.72 288.046 369.453 288.406 368.92C288.779 368.373 288.966 367.64 288.966 366.72ZM289.306 357.7L286.006 360.48L284.646 359.26L287.486 356.02L289.306 357.7ZM300.654 364.12C300.387 364.053 300.074 363.987 299.714 363.92C299.354 363.84 298.967 363.8 298.554 363.8C298.367 363.8 298.141 363.82 297.874 363.86C297.621 363.887 297.427 363.92 297.294 363.96V372H294.314V362.04C294.847 361.853 295.474 361.68 296.194 361.52C296.927 361.347 297.741 361.26 298.634 361.26C298.794 361.26 298.987 361.273 299.214 361.3C299.441 361.313 299.667 361.34 299.894 361.38C300.121 361.407 300.347 361.447 300.574 361.5C300.801 361.54 300.994 361.593 301.154 361.66L300.654 364.12ZM305.732 372H302.752V361.48H305.732V372ZM306.012 358.44C306.012 358.987 305.832 359.42 305.472 359.74C305.125 360.047 304.712 360.2 304.232 360.2C303.752 360.2 303.332 360.047 302.972 359.74C302.625 359.42 302.452 358.987 302.452 358.44C302.452 357.893 302.625 357.467 302.972 357.16C303.332 356.84 303.752 356.68 304.232 356.68C304.712 356.68 305.125 356.84 305.472 357.16C305.832 357.467 306.012 357.893 306.012 358.44ZM318.373 366.72C318.373 367.547 318.253 368.307 318.013 369C317.773 369.68 317.426 370.267 316.973 370.76C316.519 371.24 315.973 371.613 315.333 371.88C314.706 372.147 313.999 372.28 313.213 372.28C312.439 372.28 311.733 372.147 311.093 371.88C310.466 371.613 309.926 371.24 309.473 370.76C309.019 370.267 308.666 369.68 308.413 369C308.159 368.307 308.033 367.547 308.033 366.72C308.033 365.893 308.159 365.14 308.413 364.46C308.679 363.78 309.039 363.2 309.493 362.72C309.959 362.24 310.506 361.867 311.133 361.6C311.773 361.333 312.466 361.2 313.213 361.2C313.973 361.2 314.666 361.333 315.293 361.6C315.933 361.867 316.479 362.24 316.933 362.72C317.386 363.2 317.739 363.78 317.993 364.46C318.246 365.14 318.373 365.893 318.373 366.72ZM315.333 366.72C315.333 365.8 315.146 365.08 314.773 364.56C314.413 364.027 313.893 363.76 313.213 363.76C312.533 363.76 312.006 364.027 311.633 364.56C311.259 365.08 311.073 365.8 311.073 366.72C311.073 367.64 311.259 368.373 311.633 368.92C312.006 369.453 312.533 369.72 313.213 369.72C313.893 369.72 314.413 369.453 314.773 368.92C315.146 368.373 315.333 367.64 315.333 366.72ZM323.701 369.86C324.248 369.86 324.635 369.807 324.861 369.7C325.088 369.593 325.201 369.387 325.201 369.08C325.201 368.84 325.055 368.633 324.761 368.46C324.468 368.273 324.021 368.067 323.421 367.84C322.955 367.667 322.528 367.487 322.141 367.3C321.768 367.113 321.448 366.893 321.181 366.64C320.915 366.373 320.708 366.06 320.561 365.7C320.415 365.34 320.341 364.907 320.341 364.4C320.341 363.413 320.708 362.633 321.441 362.06C322.175 361.487 323.181 361.2 324.461 361.2C325.101 361.2 325.715 361.26 326.301 361.38C326.888 361.487 327.355 361.607 327.701 361.74L327.181 364.06C326.835 363.94 326.455 363.833 326.041 363.74C325.641 363.647 325.188 363.6 324.681 363.6C323.748 363.6 323.281 363.86 323.281 364.38C323.281 364.5 323.301 364.607 323.341 364.7C323.381 364.793 323.461 364.887 323.581 364.98C323.701 365.06 323.861 365.153 324.061 365.26C324.275 365.353 324.541 365.46 324.861 365.58C325.515 365.82 326.055 366.06 326.481 366.3C326.908 366.527 327.241 366.78 327.481 367.06C327.735 367.327 327.908 367.627 328.001 367.96C328.108 368.293 328.161 368.68 328.161 369.12C328.161 370.16 327.768 370.947 326.981 371.48C326.208 372.013 325.108 372.28 323.681 372.28C322.748 372.28 321.968 372.2 321.341 372.04C320.728 371.88 320.301 371.747 320.061 371.64L320.561 369.22C321.068 369.42 321.588 369.58 322.121 369.7C322.655 369.807 323.181 369.86 323.701 369.86Z" fill="#121110"/>
<rect x="31" y="428" width="330" height="55" rx="16" fill="white"/>
<path d="M60.88 462.7C60.4533 462.807 59.8867 462.92 59.18 463.04C58.4867 463.16 57.68 463.22 56.76 463.22C55.96 463.22 55.2867 463.107 54.74 462.88C54.1933 462.64 53.7533 462.307 53.42 461.88C53.0867 461.453 52.8467 460.953 52.7 460.38C52.5533 459.793 52.48 459.147 52.48 458.44V452.6H54.34V458.04C54.34 459.307 54.54 460.213 54.94 460.76C55.34 461.307 56.0133 461.58 56.96 461.58C57.16 461.58 57.3667 461.573 57.58 461.56C57.7933 461.547 57.9933 461.533 58.18 461.52C58.3667 461.493 58.5333 461.473 58.68 461.46C58.84 461.433 58.9533 461.407 59.02 461.38V452.6H60.88V462.7ZM66.5044 461.66C67.2644 461.66 67.8244 461.56 68.1844 461.36C68.5577 461.16 68.7444 460.84 68.7444 460.4C68.7444 459.947 68.5644 459.587 68.2044 459.32C67.8444 459.053 67.251 458.753 66.4244 458.42C66.0244 458.26 65.6377 458.1 65.2644 457.94C64.9044 457.767 64.591 457.567 64.3244 457.34C64.0577 457.113 63.8444 456.84 63.6844 456.52C63.5244 456.2 63.4444 455.807 63.4444 455.34C63.4444 454.42 63.7844 453.693 64.4644 453.16C65.1444 452.613 66.071 452.34 67.2444 452.34C67.5377 452.34 67.831 452.36 68.1244 452.4C68.4177 452.427 68.691 452.467 68.9444 452.52C69.1977 452.56 69.4177 452.607 69.6044 452.66C69.8044 452.713 69.9577 452.76 70.0644 452.8L69.7244 454.4C69.5244 454.293 69.211 454.187 68.7844 454.08C68.3577 453.96 67.8444 453.9 67.2444 453.9C66.7244 453.9 66.271 454.007 65.8844 454.22C65.4977 454.42 65.3044 454.74 65.3044 455.18C65.3044 455.407 65.3444 455.607 65.4244 455.78C65.5177 455.953 65.651 456.113 65.8244 456.26C66.011 456.393 66.2377 456.52 66.5044 456.64C66.771 456.76 67.091 456.887 67.4644 457.02C67.9577 457.207 68.3977 457.393 68.7844 457.58C69.171 457.753 69.4977 457.96 69.7644 458.2C70.0444 458.44 70.2577 458.733 70.4044 459.08C70.551 459.413 70.6244 459.827 70.6244 460.32C70.6244 461.28 70.2644 462.007 69.5444 462.5C68.8377 462.993 67.8244 463.24 66.5044 463.24C65.5844 463.24 64.8644 463.16 64.3444 463C63.8244 462.853 63.471 462.74 63.2844 462.66L63.6244 461.06C63.8377 461.14 64.1777 461.26 64.6444 461.42C65.111 461.58 65.731 461.66 66.5044 461.66ZM81.2902 462.7C80.8635 462.807 80.2968 462.92 79.5902 463.04C78.8968 463.16 78.0902 463.22 77.1702 463.22C76.3702 463.22 75.6968 463.107 75.1502 462.88C74.6035 462.64 74.1635 462.307 73.8302 461.88C73.4968 461.453 73.2568 460.953 73.1102 460.38C72.9635 459.793 72.8902 459.147 72.8902 458.44V452.6H74.7502V458.04C74.7502 459.307 74.9502 460.213 75.3502 460.76C75.7502 461.307 76.4235 461.58 77.3702 461.58C77.5702 461.58 77.7768 461.573 77.9902 461.56C78.2035 461.547 78.4035 461.533 78.5902 461.52C78.7768 461.493 78.9435 461.473 79.0902 461.46C79.2502 461.433 79.3635 461.407 79.4302 461.38V452.6H81.2902V462.7ZM88.0145 461.66C88.4545 461.66 88.8412 461.653 89.1745 461.64C89.5212 461.613 89.8079 461.573 90.0345 461.52V458.42C89.9012 458.353 89.6812 458.3 89.3745 458.26C89.0812 458.207 88.7212 458.18 88.2945 458.18C88.0145 458.18 87.7145 458.2 87.3945 458.24C87.0879 458.28 86.8012 458.367 86.5345 458.5C86.2812 458.62 86.0679 458.793 85.8945 459.02C85.7212 459.233 85.6345 459.52 85.6345 459.88C85.6345 460.547 85.8479 461.013 86.2745 461.28C86.7012 461.533 87.2812 461.66 88.0145 461.66ZM87.8545 452.34C88.6012 452.34 89.2279 452.44 89.7345 452.64C90.2545 452.827 90.6679 453.1 90.9745 453.46C91.2945 453.807 91.5212 454.227 91.6545 454.72C91.7879 455.2 91.8545 455.733 91.8545 456.32V462.82C91.6945 462.847 91.4679 462.887 91.1745 462.94C90.8945 462.98 90.5745 463.02 90.2145 463.06C89.8545 463.1 89.4612 463.133 89.0345 463.16C88.6212 463.2 88.2079 463.22 87.7945 463.22C87.2079 463.22 86.6679 463.16 86.1745 463.04C85.6812 462.92 85.2545 462.733 84.8945 462.48C84.5345 462.213 84.2545 461.867 84.0545 461.44C83.8545 461.013 83.7545 460.5 83.7545 459.9C83.7545 459.327 83.8679 458.833 84.0945 458.42C84.3345 458.007 84.6545 457.673 85.0545 457.42C85.4545 457.167 85.9212 456.98 86.4545 456.86C86.9879 456.74 87.5479 456.68 88.1345 456.68C88.3212 456.68 88.5145 456.693 88.7145 456.72C88.9145 456.733 89.1012 456.76 89.2745 456.8C89.4612 456.827 89.6212 456.853 89.7545 456.88C89.8879 456.907 89.9812 456.927 90.0345 456.94V456.42C90.0345 456.113 90.0012 455.813 89.9345 455.52C89.8679 455.213 89.7479 454.947 89.5745 454.72C89.4012 454.48 89.1612 454.293 88.8545 454.16C88.5612 454.013 88.1745 453.94 87.6945 453.94C87.0812 453.94 86.5412 453.987 86.0745 454.08C85.6212 454.16 85.2812 454.247 85.0545 454.34L84.8345 452.8C85.0745 452.693 85.4745 452.593 86.0345 452.5C86.5945 452.393 87.2012 452.34 87.8545 452.34ZM90.5745 448.66L87.7545 451.4L86.8145 450.56L89.3745 447.48L90.5745 448.66ZM98.7838 452.38C98.9438 452.38 99.1238 452.393 99.3238 452.42C99.5371 452.433 99.7438 452.46 99.9438 452.5C100.144 452.527 100.324 452.56 100.484 452.6C100.657 452.627 100.784 452.653 100.864 452.68L100.544 454.3C100.397 454.247 100.15 454.187 99.8038 454.12C99.4704 454.04 99.0371 454 98.5038 454C98.1571 454 97.8104 454.04 97.4638 454.12C97.1304 454.187 96.9104 454.233 96.8038 454.26V463H94.9438V453.04C95.3838 452.88 95.9304 452.733 96.5838 452.6C97.2371 452.453 97.9704 452.38 98.7838 452.38ZM104.519 463H102.659V452.6H104.519V463ZM103.579 450.72C103.245 450.72 102.959 450.613 102.719 450.4C102.492 450.173 102.379 449.873 102.379 449.5C102.379 449.127 102.492 448.833 102.719 448.62C102.959 448.393 103.245 448.28 103.579 448.28C103.912 448.28 104.192 448.393 104.419 448.62C104.659 448.833 104.779 449.127 104.779 449.5C104.779 449.873 104.659 450.173 104.419 450.4C104.192 450.613 103.912 450.72 103.579 450.72ZM116.897 457.8C116.897 458.627 116.777 459.373 116.537 460.04C116.297 460.707 115.957 461.28 115.517 461.76C115.091 462.24 114.577 462.613 113.977 462.88C113.377 463.133 112.724 463.26 112.017 463.26C111.311 463.26 110.657 463.133 110.057 462.88C109.457 462.613 108.937 462.24 108.497 461.76C108.071 461.28 107.737 460.707 107.497 460.04C107.257 459.373 107.137 458.627 107.137 457.8C107.137 456.987 107.257 456.247 107.497 455.58C107.737 454.9 108.071 454.32 108.497 453.84C108.937 453.36 109.457 452.993 110.057 452.74C110.657 452.473 111.311 452.34 112.017 452.34C112.724 452.34 113.377 452.473 113.977 452.74C114.577 452.993 115.091 453.36 115.517 453.84C115.957 454.32 116.297 454.9 116.537 455.58C116.777 456.247 116.897 456.987 116.897 457.8ZM114.957 457.8C114.957 456.627 114.691 455.7 114.157 455.02C113.637 454.327 112.924 453.98 112.017 453.98C111.111 453.98 110.391 454.327 109.857 455.02C109.337 455.7 109.077 456.627 109.077 457.8C109.077 458.973 109.337 459.907 109.857 460.6C110.391 461.28 111.111 461.62 112.017 461.62C112.924 461.62 113.637 461.28 114.157 460.6C114.691 459.907 114.957 458.973 114.957 457.8Z" fill="#7C7C7C"/>
<rect x="32" y="499" width="327" height="55" rx="16" fill="#416BAB"/>
<path d="M126.4 520C128.347 520 129.84 520.373 130.88 521.12C131.933 521.853 132.46 522.953 132.46 524.42C132.46 525.22 132.313 525.907 132.02 526.48C131.74 527.04 131.327 527.5 130.78 527.86C130.247 528.207 129.593 528.46 128.82 528.62C128.047 528.78 127.173 528.86 126.2 528.86H124.66V534H122.72V520.34C123.267 520.207 123.873 520.12 124.54 520.08C125.22 520.027 125.84 520 126.4 520ZM126.56 521.7C125.733 521.7 125.1 521.72 124.66 521.76V527.2H126.12C126.787 527.2 127.387 527.16 127.92 527.08C128.453 526.987 128.9 526.84 129.26 526.64C129.633 526.427 129.92 526.14 130.12 525.78C130.32 525.42 130.42 524.96 130.42 524.4C130.42 523.867 130.313 523.427 130.1 523.08C129.9 522.733 129.62 522.46 129.26 522.26C128.913 522.047 128.507 521.9 128.04 521.82C127.573 521.74 127.08 521.7 126.56 521.7ZM133.543 528.82C133.543 527.9 133.677 527.1 133.943 526.42C134.21 525.727 134.563 525.153 135.003 524.7C135.443 524.247 135.95 523.907 136.523 523.68C137.097 523.453 137.683 523.34 138.283 523.34C139.683 523.34 140.757 523.78 141.503 524.66C142.25 525.527 142.623 526.853 142.623 528.64C142.623 528.72 142.623 528.827 142.623 528.96C142.623 529.08 142.617 529.193 142.603 529.3H135.483C135.563 530.38 135.877 531.2 136.423 531.76C136.97 532.32 137.823 532.6 138.983 532.6C139.637 532.6 140.183 532.547 140.623 532.44C141.077 532.32 141.417 532.207 141.643 532.1L141.903 533.66C141.677 533.78 141.277 533.907 140.703 534.04C140.143 534.173 139.503 534.24 138.783 534.24C137.877 534.24 137.09 534.107 136.423 533.84C135.77 533.56 135.23 533.18 134.803 532.7C134.377 532.22 134.057 531.653 133.843 531C133.643 530.333 133.543 529.607 133.543 528.82ZM140.683 527.8C140.697 526.96 140.483 526.273 140.043 525.74C139.617 525.193 139.023 524.92 138.263 524.92C137.837 524.92 137.457 525.007 137.123 525.18C136.803 525.34 136.53 525.553 136.303 525.82C136.077 526.087 135.897 526.393 135.763 526.74C135.643 527.087 135.563 527.44 135.523 527.8H140.683ZM147.715 532.66C148.475 532.66 149.035 532.56 149.395 532.36C149.769 532.16 149.955 531.84 149.955 531.4C149.955 530.947 149.775 530.587 149.415 530.32C149.055 530.053 148.462 529.753 147.635 529.42C147.235 529.26 146.849 529.1 146.475 528.94C146.115 528.767 145.802 528.567 145.535 528.34C145.269 528.113 145.055 527.84 144.895 527.52C144.735 527.2 144.655 526.807 144.655 526.34C144.655 525.42 144.995 524.693 145.675 524.16C146.355 523.613 147.282 523.34 148.455 523.34C148.749 523.34 149.042 523.36 149.335 523.4C149.629 523.427 149.902 523.467 150.155 523.52C150.409 523.56 150.629 523.607 150.815 523.66C151.015 523.713 151.169 523.76 151.275 523.8L150.935 525.4C150.735 525.293 150.422 525.187 149.995 525.08C149.569 524.96 149.055 524.9 148.455 524.9C147.935 524.9 147.482 525.007 147.095 525.22C146.709 525.42 146.515 525.74 146.515 526.18C146.515 526.407 146.555 526.607 146.635 526.78C146.729 526.953 146.862 527.113 147.035 527.26C147.222 527.393 147.449 527.52 147.715 527.64C147.982 527.76 148.302 527.887 148.675 528.02C149.169 528.207 149.609 528.393 149.995 528.58C150.382 528.753 150.709 528.96 150.975 529.2C151.255 529.44 151.469 529.733 151.615 530.08C151.762 530.413 151.835 530.827 151.835 531.32C151.835 532.28 151.475 533.007 150.755 533.5C150.049 533.993 149.035 534.24 147.715 534.24C146.795 534.24 146.075 534.16 145.555 534C145.035 533.853 144.682 533.74 144.495 533.66L144.835 532.06C145.049 532.14 145.389 532.26 145.855 532.42C146.322 532.58 146.942 532.66 147.715 532.66ZM155.581 528.82C155.581 529.353 155.634 529.853 155.741 530.32C155.848 530.773 156.021 531.173 156.261 531.52C156.501 531.853 156.808 532.12 157.181 532.32C157.568 532.507 158.028 532.6 158.561 532.6C159.068 532.6 159.534 532.513 159.961 532.34C160.388 532.167 160.714 531.987 160.941 531.8V525.24C160.754 525.187 160.501 525.14 160.181 525.1C159.874 525.06 159.441 525.04 158.881 525.04C157.881 525.04 157.081 525.367 156.481 526.02C155.881 526.673 155.581 527.607 155.581 528.82ZM153.641 528.82C153.641 527.98 153.761 527.227 154.001 526.56C154.254 525.88 154.608 525.307 155.061 524.84C155.514 524.373 156.061 524.013 156.701 523.76C157.341 523.507 158.061 523.38 158.861 523.38C159.728 523.38 160.488 523.447 161.141 523.58C161.808 523.7 162.361 523.813 162.801 523.92V537.7H160.941V533.54C160.714 533.687 160.368 533.84 159.901 534C159.448 534.16 158.921 534.24 158.321 534.24C157.574 534.24 156.908 534.107 156.321 533.84C155.748 533.573 155.261 533.2 154.861 532.72C154.461 532.24 154.154 531.667 153.941 531C153.741 530.333 153.641 529.607 153.641 528.82ZM174.278 533.7C173.852 533.807 173.285 533.92 172.578 534.04C171.885 534.16 171.078 534.22 170.158 534.22C169.358 534.22 168.685 534.107 168.138 533.88C167.592 533.64 167.152 533.307 166.818 532.88C166.485 532.453 166.245 531.953 166.098 531.38C165.952 530.793 165.878 530.147 165.878 529.44V523.6H167.738V529.04C167.738 530.307 167.938 531.213 168.338 531.76C168.738 532.307 169.412 532.58 170.358 532.58C170.558 532.58 170.765 532.573 170.978 532.56C171.192 532.547 171.392 532.533 171.578 532.52C171.765 532.493 171.932 532.473 172.078 532.46C172.238 532.433 172.352 532.407 172.418 532.38V523.6H174.278V533.7ZM179.343 534H177.483V523.6H179.343V534ZM178.403 521.72C178.069 521.72 177.783 521.613 177.543 521.4C177.316 521.173 177.203 520.873 177.203 520.5C177.203 520.127 177.316 519.833 177.543 519.62C177.783 519.393 178.069 519.28 178.403 519.28C178.736 519.28 179.016 519.393 179.243 519.62C179.483 519.833 179.603 520.127 179.603 520.5C179.603 520.873 179.483 521.173 179.243 521.4C179.016 521.613 178.736 521.72 178.403 521.72ZM184.961 532.66C185.721 532.66 186.281 532.56 186.641 532.36C187.015 532.16 187.201 531.84 187.201 531.4C187.201 530.947 187.021 530.587 186.661 530.32C186.301 530.053 185.708 529.753 184.881 529.42C184.481 529.26 184.095 529.1 183.721 528.94C183.361 528.767 183.048 528.567 182.781 528.34C182.515 528.113 182.301 527.84 182.141 527.52C181.981 527.2 181.901 526.807 181.901 526.34C181.901 525.42 182.241 524.693 182.921 524.16C183.601 523.613 184.528 523.34 185.701 523.34C185.995 523.34 186.288 523.36 186.581 523.4C186.875 523.427 187.148 523.467 187.401 523.52C187.655 523.56 187.875 523.607 188.061 523.66C188.261 523.713 188.415 523.76 188.521 523.8L188.181 525.4C187.981 525.293 187.668 525.187 187.241 525.08C186.815 524.96 186.301 524.9 185.701 524.9C185.181 524.9 184.728 525.007 184.341 525.22C183.955 525.42 183.761 525.74 183.761 526.18C183.761 526.407 183.801 526.607 183.881 526.78C183.975 526.953 184.108 527.113 184.281 527.26C184.468 527.393 184.695 527.52 184.961 527.64C185.228 527.76 185.548 527.887 185.921 528.02C186.415 528.207 186.855 528.393 187.241 528.58C187.628 528.753 187.955 528.96 188.221 529.2C188.501 529.44 188.715 529.733 188.861 530.08C189.008 530.413 189.081 530.827 189.081 531.32C189.081 532.28 188.721 533.007 188.001 533.5C187.295 533.993 186.281 534.24 184.961 534.24C184.041 534.24 183.321 534.16 182.801 534C182.281 533.853 181.928 533.74 181.741 533.66L182.081 532.06C182.295 532.14 182.635 532.26 183.101 532.42C183.568 532.58 184.188 532.66 184.961 532.66ZM194.987 532.66C195.427 532.66 195.814 532.653 196.147 532.64C196.494 532.613 196.781 532.573 197.007 532.52V529.42C196.874 529.353 196.654 529.3 196.347 529.26C196.054 529.207 195.694 529.18 195.267 529.18C194.987 529.18 194.687 529.2 194.367 529.24C194.061 529.28 193.774 529.367 193.507 529.5C193.254 529.62 193.041 529.793 192.867 530.02C192.694 530.233 192.607 530.52 192.607 530.88C192.607 531.547 192.821 532.013 193.247 532.28C193.674 532.533 194.254 532.66 194.987 532.66ZM194.827 523.34C195.574 523.34 196.201 523.44 196.707 523.64C197.227 523.827 197.641 524.1 197.947 524.46C198.267 524.807 198.494 525.227 198.627 525.72C198.761 526.2 198.827 526.733 198.827 527.32V533.82C198.667 533.847 198.441 533.887 198.147 533.94C197.867 533.98 197.547 534.02 197.187 534.06C196.827 534.1 196.434 534.133 196.007 534.16C195.594 534.2 195.181 534.22 194.767 534.22C194.181 534.22 193.641 534.16 193.147 534.04C192.654 533.92 192.227 533.733 191.867 533.48C191.507 533.213 191.227 532.867 191.027 532.44C190.827 532.013 190.727 531.5 190.727 530.9C190.727 530.327 190.841 529.833 191.067 529.42C191.307 529.007 191.627 528.673 192.027 528.42C192.427 528.167 192.894 527.98 193.427 527.86C193.961 527.74 194.521 527.68 195.107 527.68C195.294 527.68 195.487 527.693 195.687 527.72C195.887 527.733 196.074 527.76 196.247 527.8C196.434 527.827 196.594 527.853 196.727 527.88C196.861 527.907 196.954 527.927 197.007 527.94V527.42C197.007 527.113 196.974 526.813 196.907 526.52C196.841 526.213 196.721 525.947 196.547 525.72C196.374 525.48 196.134 525.293 195.827 525.16C195.534 525.013 195.147 524.94 194.667 524.94C194.054 524.94 193.514 524.987 193.047 525.08C192.594 525.16 192.254 525.247 192.027 525.34L191.807 523.8C192.047 523.693 192.447 523.593 193.007 523.5C193.567 523.393 194.174 523.34 194.827 523.34ZM205.756 523.38C205.916 523.38 206.096 523.393 206.296 523.42C206.51 523.433 206.716 523.46 206.916 523.5C207.116 523.527 207.296 523.56 207.456 523.6C207.63 523.627 207.756 523.653 207.836 523.68L207.516 525.3C207.37 525.247 207.123 525.187 206.776 525.12C206.443 525.04 206.01 525 205.476 525C205.13 525 204.783 525.04 204.436 525.12C204.103 525.187 203.883 525.233 203.776 525.26V534H201.916V524.04C202.356 523.88 202.903 523.733 203.556 523.6C204.21 523.453 204.943 523.38 205.756 523.38ZM221.16 528.2C221.373 528.467 221.64 528.82 221.96 529.26C222.293 529.687 222.633 530.167 222.98 530.7C223.327 531.22 223.667 531.767 224 532.34C224.347 532.913 224.64 533.467 224.88 534H222.76C222.493 533.493 222.2 532.98 221.88 532.46C221.573 531.94 221.26 531.447 220.94 530.98C220.62 530.5 220.3 530.053 219.98 529.64C219.673 529.227 219.393 528.867 219.14 528.56C218.967 528.573 218.787 528.58 218.6 528.58C218.427 528.58 218.247 528.58 218.06 528.58H216.32V534H214.38V520.34C214.927 520.207 215.533 520.12 216.2 520.08C216.88 520.027 217.5 520 218.06 520C220.007 520 221.487 520.367 222.5 521.1C223.527 521.833 224.04 522.927 224.04 524.38C224.04 525.3 223.793 526.087 223.3 526.74C222.82 527.393 222.107 527.88 221.16 528.2ZM218.22 521.7C217.393 521.7 216.76 521.72 216.32 521.76V526.98H217.7C218.367 526.98 218.967 526.947 219.5 526.88C220.033 526.813 220.48 526.687 220.84 526.5C221.213 526.313 221.5 526.053 221.7 525.72C221.9 525.373 222 524.92 222 524.36C222 523.84 221.9 523.407 221.7 523.06C221.5 522.713 221.227 522.44 220.88 522.24C220.547 522.04 220.147 521.9 219.68 521.82C219.227 521.74 218.74 521.7 218.22 521.7ZM226.258 528.82C226.258 527.9 226.392 527.1 226.658 526.42C226.925 525.727 227.278 525.153 227.718 524.7C228.158 524.247 228.665 523.907 229.238 523.68C229.812 523.453 230.398 523.34 230.998 523.34C232.398 523.34 233.472 523.78 234.218 524.66C234.965 525.527 235.338 526.853 235.338 528.64C235.338 528.72 235.338 528.827 235.338 528.96C235.338 529.08 235.332 529.193 235.318 529.3H228.198C228.278 530.38 228.592 531.2 229.138 531.76C229.685 532.32 230.538 532.6 231.698 532.6C232.352 532.6 232.898 532.547 233.338 532.44C233.792 532.32 234.132 532.207 234.358 532.1L234.618 533.66C234.392 533.78 233.992 533.907 233.418 534.04C232.858 534.173 232.218 534.24 231.498 534.24C230.592 534.24 229.805 534.107 229.138 533.84C228.485 533.56 227.945 533.18 227.518 532.7C227.092 532.22 226.772 531.653 226.558 531C226.358 530.333 226.258 529.607 226.258 528.82ZM233.398 527.8C233.412 526.96 233.198 526.273 232.758 525.74C232.332 525.193 231.738 524.92 230.978 524.92C230.552 524.92 230.172 525.007 229.838 525.18C229.518 525.34 229.245 525.553 229.018 525.82C228.792 526.087 228.612 526.393 228.478 526.74C228.358 527.087 228.278 527.44 228.238 527.8H233.398ZM245.23 528.82C245.23 527.607 244.93 526.673 244.33 526.02C243.73 525.367 242.93 525.04 241.93 525.04C241.37 525.04 240.93 525.06 240.61 525.1C240.303 525.14 240.057 525.187 239.87 525.24V531.8C240.097 531.987 240.423 532.167 240.85 532.34C241.277 532.513 241.743 532.6 242.25 532.6C242.783 532.6 243.237 532.507 243.61 532.32C243.997 532.12 244.31 531.853 244.55 531.52C244.79 531.173 244.963 530.773 245.07 530.32C245.177 529.853 245.23 529.353 245.23 528.82ZM247.17 528.82C247.17 529.607 247.063 530.333 246.85 531C246.65 531.667 246.35 532.24 245.95 532.72C245.55 533.2 245.057 533.573 244.47 533.84C243.897 534.107 243.237 534.24 242.49 534.24C241.89 534.24 241.357 534.16 240.89 534C240.437 533.84 240.097 533.687 239.87 533.54V537.7H238.01V523.92C238.45 523.813 238.997 523.7 239.65 523.58C240.317 523.447 241.083 523.38 241.95 523.38C242.75 523.38 243.47 523.507 244.11 523.76C244.75 524.013 245.297 524.373 245.75 524.84C246.203 525.307 246.55 525.88 246.79 526.56C247.043 527.227 247.17 527.98 247.17 528.82ZM258.968 528.8C258.968 529.627 258.848 530.373 258.608 531.04C258.368 531.707 258.028 532.28 257.588 532.76C257.161 533.24 256.648 533.613 256.048 533.88C255.448 534.133 254.794 534.26 254.088 534.26C253.381 534.26 252.728 534.133 252.128 533.88C251.528 533.613 251.008 533.24 250.568 532.76C250.141 532.28 249.808 531.707 249.568 531.04C249.328 530.373 249.208 529.627 249.208 528.8C249.208 527.987 249.328 527.247 249.568 526.58C249.808 525.9 250.141 525.32 250.568 524.84C251.008 524.36 251.528 523.993 252.128 523.74C252.728 523.473 253.381 523.34 254.088 523.34C254.794 523.34 255.448 523.473 256.048 523.74C256.648 523.993 257.161 524.36 257.588 524.84C258.028 525.32 258.368 525.9 258.608 526.58C258.848 527.247 258.968 527.987 258.968 528.8ZM257.028 528.8C257.028 527.627 256.761 526.7 256.228 526.02C255.708 525.327 254.994 524.98 254.088 524.98C253.181 524.98 252.461 525.327 251.928 526.02C251.408 526.7 251.148 527.627 251.148 528.8C251.148 529.973 251.408 530.907 251.928 531.6C252.461 532.28 253.181 532.62 254.088 532.62C254.994 532.62 255.708 532.28 256.228 531.6C256.761 530.907 257.028 529.973 257.028 528.8ZM264.004 532.66C264.764 532.66 265.324 532.56 265.684 532.36C266.058 532.16 266.244 531.84 266.244 531.4C266.244 530.947 266.064 530.587 265.704 530.32C265.344 530.053 264.751 529.753 263.924 529.42C263.524 529.26 263.138 529.1 262.764 528.94C262.404 528.767 262.091 528.567 261.824 528.34C261.558 528.113 261.344 527.84 261.184 527.52C261.024 527.2 260.944 526.807 260.944 526.34C260.944 525.42 261.284 524.693 261.964 524.16C262.644 523.613 263.571 523.34 264.744 523.34C265.038 523.34 265.331 523.36 265.624 523.4C265.918 523.427 266.191 523.467 266.444 523.52C266.698 523.56 266.918 523.607 267.104 523.66C267.304 523.713 267.458 523.76 267.564 523.8L267.224 525.4C267.024 525.293 266.711 525.187 266.284 525.08C265.858 524.96 265.344 524.9 264.744 524.9C264.224 524.9 263.771 525.007 263.384 525.22C262.998 525.42 262.804 525.74 262.804 526.18C262.804 526.407 262.844 526.607 262.924 526.78C263.018 526.953 263.151 527.113 263.324 527.26C263.511 527.393 263.738 527.52 264.004 527.64C264.271 527.76 264.591 527.887 264.964 528.02C265.458 528.207 265.898 528.393 266.284 528.58C266.671 528.753 266.998 528.96 267.264 529.2C267.544 529.44 267.758 529.733 267.904 530.08C268.051 530.413 268.124 530.827 268.124 531.32C268.124 532.28 267.764 533.007 267.044 533.5C266.338 533.993 265.324 534.24 264.004 534.24C263.084 534.24 262.364 534.16 261.844 534C261.324 533.853 260.971 533.74 260.784 533.66L261.124 532.06C261.338 532.14 261.678 532.26 262.144 532.42C262.611 532.58 263.231 532.66 264.004 532.66Z" fill="white"/>
<defs>
<clipPath id="clip0_878_626">
<rect width="118" height="32" fill="white" transform="translate(136 298)"/>
</clipPath>
</defs>
</svg>
